<?xml version='1.0' encoding='iso-8859-1'?>
<svg version="1.1" xmlns="http://www.w3.org/2000/svg" viewBox="0 0 18.631 18.631" xmlns:xlink="http://www.w3.org/1999/xlink" enable-background="new 0 0 18.631 18.631">
  <g>
    <g>
      <path fill="#020400" d="m9.317,.001c-5.144,0-9.317,4.171-9.317,9.315 0,5.144 4.173,9.313 9.317,9.313s9.313-4.169 9.313-9.313c0.001-5.144-4.168-9.315-9.313-9.315zm6.809,5.904h-6.819l2.236-3.873c2.005,0.614 3.656,2.028 4.583,3.873zm-3.894,5.057l-.01-.005 .004-.005 .006,.01zm-.034-3.363l-.014,.008-.004-.008h0.018zm-2.881-5.905c0.151,0 0.296,0.023 0.448,0.033l-3.397,5.882-2.233-3.869c1.361-1.267 3.177-2.046 5.182-2.046zm-7.622,7.622c-2.22045e-16-1.559 0.469-3.007 1.272-4.213l3.404,5.897h-4.483c-0.124-0.541-0.193-1.105-0.193-1.684zm.796,3.379h6.826l-2.25,3.897c-2.005-0.622-3.656-2.043-4.576-3.897zm6.826,4.241c-0.162,0-0.317-0.024-0.476-0.032l3.411-5.908 2.247,3.894c-1.357,1.266-3.177,2.046-5.182,2.046zm6.351-3.412l-3.421-5.925h4.489c0.127,0.553 0.203,1.125 0.203,1.718 0,1.555-0.472,3.001-1.271,4.207z"/>
    </g>
  </g>
</svg>
