<?xml version="1.0" ?><svg id="Layer_1" style="enable-background:new 0 0 60 60;" version="1.1" viewBox="0 0 60 60" xml:space="preserve" xmlns="http://www.w3.org/2000/svg" xmlns:xlink="http://www.w3.org/1999/xlink"><path d="M32.35,5.11c-0.02,0-0.05,0-0.07-0.01C31.53,5.04,30.77,5,30,5C21.62,5,14.2,9.14,9.66,15.48c-0.04,0.05-0.08,0.1-0.11,0.16  C6.69,19.71,5,24.66,5,30c0,3.7,0.82,7.22,2.27,10.39c0.01,0.04,0.03,0.07,0.05,0.1c3.67,7.9,11.34,13.57,20.39,14.4  c0.03,0,0.06,0.01,0.09,0.01c0.01,0,0.02,0,0.02,0C28.54,54.96,29.27,55,30,55c8.37,0,15.8-4.14,20.33-10.48  c0.05-0.05,0.08-0.1,0.12-0.16C53.31,40.29,55,35.34,55,30C55,17.01,45.04,6.3,32.35,5.11z M53,30c0,4.37-1.23,8.46-3.35,11.94  L42.47,29.5l-4.93-8.55h8.65c0.55,0,1-0.45,1-1s-0.45-1-1-1H35.8h-9.87l6.8-11.79C44.13,8.53,53,18.24,53,30z M35.22,39.05H24.78  L19.56,30l5.22-9.05h10.44L40.44,30L35.22,39.05z M30,7c0.17,0,0.34,0.01,0.52,0.01l-7.18,12.44L18.4,28l-6.8-11.78  C15.8,10.62,22.48,7,30,7z M10.35,18.06l7.18,12.44l4.93,8.55H8.86C7.66,36.27,7,33.21,7,30C7,25.63,8.23,21.54,10.35,18.06z   M9.83,41.05H24.2h9.87l-6.8,11.79C19.75,51.94,13.33,47.4,9.83,41.05z M30,53c-0.17,0-0.34-0.01-0.52-0.01l7.18-12.44L41.6,32  l6.8,11.78C44.2,49.37,37.52,53,30,53z"/></svg>