<?xml version="1.0" ?><svg style="enable-background:new 0 0 48 48;" version="1.1" viewBox="0 0 48 48" xml:space="preserve" xmlns="http://www.w3.org/2000/svg" xmlns:xlink="http://www.w3.org/1999/xlink"><style type="text/css">
	.st0{fill:none;stroke:#303030;stroke-width:0.8;stroke-linecap:round;stroke-linejoin:round;stroke-miterlimit:10;}
	.st1{fill:#303030;}
	.st2{fill:none;stroke:#303030;stroke-width:0.8;stroke-linecap:round;stroke-linejoin:round;}
	
		.st3{fill:none;stroke:#303030;stroke-width:0.8;stroke-linecap:round;stroke-linejoin:round;stroke-dasharray:1.9831,1.9831,1.9831,1.9831;}
	
		.st4{fill:none;stroke:#303030;stroke-width:0.8;stroke-linecap:round;stroke-linejoin:round;stroke-dasharray:1.9831,1.9831,1.9831,1.9831,1.9831,1.9831;}
	.st5{fill:none;stroke:#303030;stroke-width:0.5;stroke-linecap:round;stroke-linejoin:round;stroke-miterlimit:10;}
	.st6{fill:none;stroke:#303030;stroke-width:0.7;stroke-linecap:round;stroke-linejoin:round;stroke-miterlimit:10;}
	.st7{fill:none;stroke:#303030;stroke-width:0.75;stroke-linecap:round;stroke-linejoin:round;stroke-miterlimit:10;}
</style><g id="Padding__x26__Artboard"/><g id="Icons"><path class="st0" d="M38.65,34.8H9.35c-1.22,0-2.21-0.99-2.21-2.21V15.41c0-1.22,0.99-2.21,2.21-2.21h29.3   c1.22,0,2.21,0.99,2.21,2.21v17.17C40.86,33.81,39.87,34.8,38.65,34.8z"/><path class="st5" d="M15.47,17.96h-3.96c-0.55,0-1,0.44-1,0.99v3.13c0,0.54,0.45,0.99,1,0.99h3.96c0.55,0,1-0.44,1-0.99v-3.13   C16.47,18.41,16.02,17.96,15.47,17.96z"/><path class="st5" d="M12.64,17.97c-0.11,0.24-0.24,0.59-0.32,1.03c-0.08,0.43-0.1,0.94-0.01,1.52c0.08,0.46,0.23,0.96,0.49,1.49"/><line class="st5" x1="10.51" x2="16.47" y1="22.01" y2="22.01"/><line class="st5" x1="12.31" x2="10.51" y1="19" y2="19"/><line class="st5" x1="12.3" x2="10.51" y1="20.51" y2="20.51"/><path class="st5" d="M14.47,17.97c0.11,0.24,0.24,0.59,0.32,1.03c0.08,0.43,0.1,0.94,0.01,1.52c-0.08,0.46-0.23,0.96-0.49,1.49"/><line class="st5" x1="16.46" x2="14.79" y1="19" y2="19"/><line class="st5" x1="16.46" x2="14.81" y1="20.51" y2="20.51"/><line class="st0" x1="26.6" x2="37.06" y1="17.08" y2="17.08"/><line class="st0" x1="10.41" x2="14.86" y1="27.8" y2="27.8"/><line class="st0" x1="10.41" x2="22" y1="31.26" y2="31.26"/><line class="st0" x1="17.55" x2="22" y1="27.8" y2="27.8"/><line class="st0" x1="24.69" x2="29.15" y1="27.8" y2="27.8"/><line class="st0" x1="31.83" x2="36.29" y1="27.8" y2="27.8"/></g></svg>